<?xml version="1.0" encoding="utf-8"?><svg xmlns="http://www.w3.org/2000/svg" xmlns:xlink="http://www.w3.org/1999/xlink" width="3000" height="2000" preserveAspectRatio="xMidYMid" viewBox="0 0 3000 2000" style="z-index:1;margin-right:-2.46914px;display:block;background-repeat-y:initial;background-repeat-x:initial;background-color:rgb(17, 16, 29);animation-play-state:paused" ><g transform="translate(1500,1000) scale(1,1) translate(-1500,-1000)" style="transform:matrix(1, 0, 0, 1, 0, 0);animation-play-state:paused" ><path d="M -100 1035.73 C 9.81 1039.16 12.85 1045.38 113.33 1045.38 S 225.45 1077.45 326.67 1077.45 S 440.46 1056.4 540 1056.4 S 649.56 1028.73 753.33 1028.73 S 862.66 1076.64 966.67 1076.64 S 1080.46 1033.49 1180 1033.49 S 1293.5 1054.37 1393.33 1054.37 S 1500.94 1024.06 1606.67 1024.06 S 1716.25 1056.44 1820 1056.44 S 1930.71 1052.71 2033.33 1052.71 S 2146.37 1056.44 2246.67 1056.44 S 2358.04 1033.6 2460 1033.6 S 2572.6 1048.69 2673.33 1048.69 S 2784.84 1024.01 2886.67 1024.01 S 2993.58 1024.18 3100 1024.18 S 3207.52 1029.08 3313.33 1029.08 L 3100 2000 L -100 2000 Z" fill="#11101d" stroke-width="0" transform="matrix(1,0,0,1,0,0)" style="transform:matrix(1, 0, 0, 1, 0, 0);animation-play-state:paused" ></path>
<path d="M -100 1125.21 C 13 1155.66 12.48 1138.82 119.18 1138.82 S 231.87 1142.86 338.36 1142.86 S 454.87 1152.39 557.53 1152.39 S 671.76 1108.98 776.71 1108.98 S 889.41 1145.01 995.89 1145.01 S 1111.73 1130.41 1215.07 1130.41 S 1326.59 1117.21 1434.25 1117.21 S 1545.49 1112.89 1653.42 1112.89 S 1770.24 1133 1872.6 1133 S 1985.56 1136.85 2091.78 1136.85 S 2201.53 1103.6 2310.96 1103.6 S 2422.66 1136.47 2530.14 1136.47 S 2640.3 1131.12 2749.32 1131.12 S 2863.71 1124.07 2968.49 1124.07 S 3082.17 1115.29 3187.67 1115.29 L 3100 2000 L -100 2000 Z" fill="#222530" stroke-width="0" transform="matrix(1,0,0,1,1.1340199708938599,0)" style="transform:matrix(1, 0, 0, 1, 1.13402, 0);animation-play-state:paused" ></path>
<path d="M -100 1241.19 C 18.16 1242.56 13.83 1236.05 125.35 1236.05 S 245.32 1219.86 350.7 1219.86 S 464.01 1247.46 576.06 1247.46 S 695.49 1174.35 801.41 1174.35 S 920.07 1270.06 1026.76 1270.06 S 1140.86 1221.37 1252.11 1221.37 S 1364.88 1248.45 1477.46 1248.45 S 1595.77 1229.41 1702.82 1229.41 S 1815.54 1222.6 1928.17 1222.6 S 2042.14 1203.99 2153.52 1203.99 S 2266.89 1244.29 2378.87 1244.29 S 2498.82 1220.2 2604.23 1220.2 S 2722.35 1199.07 2829.58 1199.07 S 2947.1 1173.84 3054.93 1173.84 S 3174.48 1234.24 3280.28 1234.24 L 3100 2000 L -100 2000 Z" fill="#353944" stroke-width="0" transform="matrix(1,0,0,1,3.5863139629364014,0)" style="transform:matrix(1, 0, 0, 1, 3.58631, 0);animation-play-state:paused" ></path>
<path d="M -100 1325.6 C 17.75 1362.86 20.66 1349.75 131.88 1349.75 S 253.19 1250.23 363.77 1250.23 S 483.94 1338.21 595.65 1338.21 S 716.32 1280.31 827.54 1280.31 S 945.84 1368.96 1059.42 1368.96 S 1181.21 1321.84 1291.3 1321.84 S 1413.88 1326.33 1523.19 1326.33 S 1640.11 1319.02 1755.07 1319.02 S 1876.8 1324.43 1986.96 1324.43 S 2106.54 1320.6 2218.84 1320.6 S 2334.94 1321.63 2450.72 1321.63 S 2572.74 1365.25 2682.61 1365.25 S 2800.67 1342.62 2914.49 1342.62 S 3036.18 1305.52 3146.38 1305.52 L 3100 2000 L -100 2000 Z" fill="#494f59" stroke-width="0" transform="matrix(1,0,0,1,6.4136857986450195,0)" style="transform:matrix(1, 0, 0, 1, 6.41369, 0);animation-play-state:paused" ></path>
<path d="M -100 1467.07 C 21.7 1429.39 20.25 1437.69 138.81 1437.69 S 262.9 1365.41 377.61 1365.41 S 497.55 1352.86 616.42 1352.86 S 742.08 1329.14 855.22 1329.14 S 974.75 1442.66 1094.03 1442.66 S 1216.16 1373.28 1332.84 1373.28 S 1457.89 1449.26 1571.64 1449.26 S 1697.36 1339.81 1810.45 1339.81 S 1934.01 1399.22 2049.25 1399.22 S 2174.24 1343.22 2288.06 1343.22 S 2413.44 1429.38 2526.87 1429.38 S 2650.97 1452.44 2765.67 1452.44 S 2889.66 1429.58 3004.48 1429.58 S 3126.67 1333.74 3243.28 1333.74 L 3100 2000 L -100 2000 Z" fill="#5e676f" stroke-width="0" transform="matrix(1,0,0,1,8.86598014831543,0)" style="transform:matrix(1, 0, 0, 1, 8.86598, 0);animation-play-state:paused" ></path>
<path d="M -100 1532.37 C 27.99 1504.15 30.35 1529.97 146.15 1529.97 S 272.22 1414.95 392.31 1414.95 S 518.99 1542.23 638.46 1542.23 S 763.22 1459.19 884.62 1459.19 S 1012.67 1500.28 1130.77 1500.28 S 1257.25 1404.42 1376.92 1404.42 S 1501.87 1539 1623.08 1539 S 1749.37 1443.98 1869.23 1443.98 S 1999.56 1557.45 2115.38 1557.45 S 2238.53 1448.73 2361.54 1448.73 S 2485.71 1542.04 2607.69 1542.04 S 2731.95 1437.66 2853.85 1437.66 S 2977.43 1458.69 3100 1458.69 S 3226.28 1461.9 3346.15 1461.9 L 3100 2000 L -100 2000 Z" fill="#757e85" stroke-width="0" transform="matrix(1,0,0,1,10,0)" style="transform:matrix(1, 0, 0, 1, 10, 0);animation-play-state:paused" ></path>
<path d="M -100 1610.79 C 31.38 1650.76 34.12 1618.75 153.97 1618.75 S 284.68 1495.54 407.94 1495.54 S 537.74 1590.9 661.9 1590.9 S 794.62 1497.23 915.87 1497.23 S 1044.77 1632.84 1169.84 1632.84 S 1300.31 1502.93 1423.81 1502.93 S 1555.08 1623.26 1677.78 1623.26 S 1808.26 1476.88 1931.75 1476.88 S 2063.64 1612.16 2185.71 1612.16 S 2314.34 1522.2 2439.68 1522.2 S 2569.22 1608.23 2693.65 1608.23 S 2820.96 1498.2 2947.62 1498.2 S 3079.42 1500.29 3201.59 1500.29 L 3100 2000 L -100 2000 Z" fill="#8d979c" stroke-width="0" transform="matrix(1,0,0,1,8.865981101989746,0)" style="transform:matrix(1, 0, 0, 1, 8.86598, 0);animation-play-state:paused" ></path>
<path d="M -100 1610.35 C 34.84 1621.4 36.36 1688.09 162.3 1688.09 S 295.88 1689.52 424.59 1689.52 S 557.1 1716.34 686.89 1716.34 S 818.87 1613.34 949.18 1613.34 S 1086.42 1608.98 1211.48 1608.98 S 1342.66 1603.59 1473.77 1603.59 S 1606.09 1746.96 1736.07 1746.96 S 1872.33 1613.21 1998.36 1613.21 S 2135.43 1696.26 2260.66 1696.26 S 2394.93 1566.61 2522.95 1566.61 S 2657.62 1622.77 2785.25 1622.77 S 2922.3 1740.43 3047.54 1740.43 S 3183.07 1600.63 3309.84 1600.63 L 3100 2000 L -100 2000 Z" fill="#a7b0b4" stroke-width="0" transform="matrix(1,0,0,1,6.4136857986450195,0)" style="transform:matrix(1, 0, 0, 1, 6.41369, 0);animation-play-state:paused" ></path>
<path d="M -100 1647.69 C 41.7 1689.94 40.19 1832.75 171.19 1832.75 S 308.52 1658.56 442.37 1658.56 S 580.42 1843.84 713.56 1843.84 S 855.07 1677.22 984.75 1677.22 S 1125.95 1844.36 1255.93 1844.36 S 1391.69 1827.33 1527.12 1827.33 S 1667.5 1817.35 1798.31 1817.35 S 1936.87 1644.29 2069.49 1644.29 S 2211.74 1779.79 2340.68 1779.79 S 2477.16 1700.05 2611.86 1700.05 S 2748.96 1639.64 2883.05 1639.64 S 3022.32 1659.17 3154.24 1659.17 L 3100 2000 L -100 2000 Z" fill="#c1cacc" stroke-width="0" transform="matrix(1,0,0,1,3.5863142013549805,0)" style="transform:matrix(1, 0, 0, 1, 3.58631, 0);animation-play-state:paused" ></path>
<path d="M -100 1890.85 C 43.73 1883.64 40.41 1937.47 180.7 1937.47 S 323.66 1772.88 461.4 1772.88 S 606.41 1904.64 742.11 1904.64 S 883.75 1903.48 1022.81 1903.48 S 1166.37 1921.53 1303.51 1921.53 S 1447.31 1706.11 1584.21 1706.11 S 1731.29 1772.9 1864.91 1772.9 S 2007.63 1880.47 2145.61 1880.47 S 2289.95 1898.15 2426.32 1898.15 S 2571.88 1771.26 2707.02 1771.26 S 2854.5 1888.93 2987.72 1888.93 S 3132.3 1754.4 3268.42 1754.4 L 3100 2000 L -100 2000 Z" fill="#dde4e5" stroke-width="0" transform="matrix(1,0,0,1,1.1340198516845703,0)" style="transform:matrix(1, 0, 0, 1, 1.13402, 0);animation-play-state:paused" ></path></g></svg>